<?xml version="1.0" encoding="UTF-8"?>
<svg id="Layer_2" data-name="Layer 2" xmlns="http://www.w3.org/2000/svg" viewBox="0 0 149.33 207.45">
  <defs>
    <style>
      .cls-1 {
        fill: #f15a24;
      }
    </style>
  </defs>
  <g id="Layer_1-2" data-name="Layer 1">
    <g>
      <polygon class="cls-1" points="149.33 164.74 149.33 168.7 136.03 184.24 149.33 184.35 149.33 188.92 129.17 188.94 129.17 184.92 142.5 169.39 129.58 169.37 129.58 164.73 149.33 164.74"/>
      <path class="cls-1" d="M102.08,130.91c-7.55,6.91-17.37,12.15-27.13,15.14-11.79,3.61-24.2,3.59-36,.08-3.88-1.15-7.54-2.61-11.02-4.69-8.19-4.88-14.35-12.4-17.52-21.41-2.05-5.82-2.78-11.94-2.38-18.11.79-12.04,5.71-22.24,13.96-30.94,5.95-6.27,12.95-11.36,20.6-15.43,14.99-7.98,36.07-13.26,52.88-12.24l2.74.17c.32.02.88-.16,1.09-.37s.41-.71.43-1.08c.6-13.3-.62-26.21-4.07-39.04-.23-.84-.48-2.07.24-2.69.54-.47,1.92-.34,2.54.08,5.49,3.71,10.06,8.43,13.87,13.86,9.25,13.17,13.64,27.72,15.35,43.6.3,2.74,1.37,5.12,3.25,7.06,3.54,3.63,6.49,7.65,8.94,12.11,2.21,4.01,4.01,8.12,5.3,12.51.27.92-.21,1.89-.21,2.86-.97-.23-2.04-.06-2.89-.62l-14.42-9.44c-1.02-.67-2.06-1.07-3.2-1.52l-1.08,8.01c-.86,6.41-2.58,12.6-5.01,18.6-3.72,9.2-8.94,16.81-16.24,23.5ZM83.81,102.87c8.19-7.87,11.88-18.62,13.14-29.71.08-.69-.53-1.27-1.19-1.27l-9.77-.02c-15.14-.03-34.72,7.26-43.03,20.92-2.93,4.82-3.52,11.05.46,15.47,1.68,1.86,3.88,3.1,6.34,3.77,3.88,1.06,7.81,1.39,11.83,1.11,8.52-.59,16.12-4.42,22.22-10.28Z"/>
      <path class="cls-1" d="M114.33,188.24c-3.37,1.46-7.06,1.48-10.41.2-4.68-1.79-7.67-6.12-7.85-11.11-.19-5.5,3.1-10.4,8.3-12.23,2.99-1.05,6.21-1.04,9.2,0,4.8,1.68,7.96,6.02,8.19,11.09.24,5.2-2.6,9.94-7.44,12.04ZM108.69,184.47c3.6.15,6.57-2.23,7.33-5.65.63-2.82-.07-5.8-2.25-7.76-2.96-2.66-7.66-2.47-10.3.55-2.47,2.83-2.49,7.17-.24,10.09,1.33,1.74,3.21,2.68,5.46,2.77Z"/>
      <path class="cls-1" d="M48.27,188.45c-3.3,1.26-6.82,1.21-10.02-.06-4.7-1.86-7.67-6.3-7.73-11.34-.07-5.36,3.13-10.06,8.17-11.9,2.98-1.09,6.2-1.11,9.21-.09,5,1.69,8.28,6.28,8.34,11.56.06,5.25-2.99,9.93-7.97,11.83ZM43.41,184.47c2.48,0,4.62-1.08,5.97-3.1,1.96-2.94,1.8-6.97-.54-9.69-2.62-3.05-7.39-3.35-10.37-.61-3.04,2.8-3.18,7.72-.6,10.84,1.39,1.68,3.29,2.55,5.54,2.56Z"/>
      <path class="cls-1" d="M87.86,176.69c.03,4.4-2.1,8.24-5.81,10.42-1.92,1.13-4.08,1.79-6.35,1.8l-10.12.03v-24.2s9.84,0,9.84,0c2.36,0,4.54.63,6.55,1.74,3.67,2.13,5.86,5.84,5.89,10.2ZM81.76,179.97c.76-2.08.74-4.17,0-6.19-1.03-2.48-3.33-4.2-6.06-4.22l-4.84-.04v14.65s4.89-.04,4.89-.04c2.67-.02,4.95-1.68,6.01-4.15Z"/>
      <path class="cls-1" d="M22.27,176.37c.26,7.24-5.48,12.55-12.43,12.56H0s.08-1.02.08-1.02v-22.15s-.08-1.02-.08-1.02l9.97.03c3.06,0,5.96,1.08,8.24,3.03,2.57,2.2,3.93,5.21,4.05,8.57ZM16.05,180.26c.96-2.32.9-4.74-.09-6.96-1.13-2.22-3.31-3.71-5.84-3.74l-4.85-.05v14.65s4.9-.04,4.9-.04c2.55-.02,4.74-1.54,5.88-3.86Z"/>
      <path class="cls-1" d="M23.76,202.29c-.09,2.25-1.76,3.71-3.89,3.74-2.39.04-4.11-1.71-4.02-4.11.08-2.22,1.67-3.75,3.88-3.78,2.38-.04,4.12,1.65,4.03,4.15ZM21.93,204.09c.88-1.18.84-2.96-.04-4.05-.95-1.18-3.01-1.27-4.05-.15s-1.06,3.05-.13,4.24c1,1.27,3.23,1.31,4.23-.03Z"/>
      <path class="cls-1" d="M39.18,202.39l-.02,3.07c0,.24-.39.56-.59.57-.21,0-.57-.31-.57-.53v-2.99c0-.27-.2-.86-.43-1-.3-.18-.87-.1-1.09.08-.2.17-.56.63-.56.91l-.04,2.83c0,.33-.22.64-.55.68-.24.03-.62-.28-.62-.56v-4.38c0-.22.22-.57.39-.61.21-.05.6.13.73.29l.24.26c.05.05.25-.09.31-.14.69-.65,1.82-.54,2.33.3.69.03,1.21-1.17,2.6-.58.5.21,1.02.93,1.03,1.62l.04,3.12c0,.31-.27.64-.55.67-.26.03-.65-.25-.65-.53v-3.03c0-.22-.14-.74-.32-.88-.26-.2-.82-.17-1.08-.04-.23.11-.61.53-.61.85Z"/>
      <path class="cls-1" d="M57.11,204.88c-.74-1.05-.66-2.64.19-3.52,1.17-1.23,3.03-1.2,4.28-.03l.03-3.11c0-.23.24-.55.44-.59.25-.05.72.17.72.47v7.39c0,.28-.42.58-.69.54s-.44-.43-.53-.84c-1.25,1.16-3.37,1.2-4.43-.3ZM59.44,205.07c1.26.09,2.16-.66,2.17-1.81,0-1.12-.86-1.88-2.03-1.86-1.13.02-1.84.83-1.8,1.93.04,1,.6,1.67,1.65,1.74Z"/>
      <path class="cls-1" d="M124.54,204.73c1.98,1.21,3.18-.8,3.77-.1.45.53-.96,1.49-2.9,1.36-1.58-.11-2.66-1.35-2.55-2.94.07-.98.49-1.9,1.44-2.3,1.68-.71,4.21-.12,4.34,1.72.05.74-.43,1.15-1.11,1.16l-3.45.04c-.1.39.1.86.45,1.07ZM127.02,202.77c.14,0,.45-.12.47-.24s-.06-.48-.16-.57c-.69-.66-1.93-.73-2.76-.2-.32.2-.55.68-.41.99l2.86.03Z"/>
      <path class="cls-1" d="M65.85,204.88c2.05.84,2.96-.91,3.45-.3.64.82-1.82,1.95-3.86,1.15-1.01-.4-1.49-1.34-1.54-2.39-.08-1.73,1.18-2.94,2.9-2.9,1.19.03,2.38.43,2.83,1.64.09.23.06.83-.05,1.04s-.54.48-.81.48l-3.7.04c-.02.5.27,1.02.79,1.23ZM68.18,202.77c.12,0,.4-.25.37-.37-.24-1.18-2.18-1.22-3.01-.62-.3.22-.54.7-.33.95l2.96.03Z"/>
      <path class="cls-1" d="M44.25,205.62c-.59-.38-.84-1.02-.77-1.6.18-1.58,2.51-1.91,4.01-1.19.18-.5-.05-1.13-.59-1.32-1.65-.57-2.79,1.01-3.11.16-.28-.73,1.81-1.58,3.6-1.02.72.22,1.36.91,1.36,1.69l.02,3.18c0,.22-.45.55-.68.51-.21-.03-.43-.35-.56-.64-.9.7-2.25.89-3.28.23ZM47.59,204.25c.05-1.01-1.84-1.19-2.65-.68-.21.13-.34.66-.27.91.06.2.35.5.58.56.85.24,2.3.1,2.34-.79Z"/>
      <path class="cls-1" d="M93.63,205.7c-1.06.46-2.27.42-3.23-.09-.85-.44-1.32-1.28-1.38-2.08-.07-.94.21-1.86,1-2.43,1.2-.86,2.86-.88,4.09-.07.85.56,1.17,1.52,1.09,2.45-.07.9-.58,1.78-1.56,2.2ZM91.94,205.07c1.24.08,2.11-.68,2.09-1.87s-.84-1.8-1.94-1.8c-1.12,0-1.91.65-1.93,1.81-.02,1.03.69,1.79,1.77,1.86Z"/>
      <path class="cls-1" d="M86.86,202.56c0-.74-.53-1.12-1.12-1.15-1.1-.06-1.97.67-1.97,1.79v2.15c0,.31-.25.65-.52.67-.4.03-.67-.28-.67-.68v-4.29c0-.37.32-.62.68-.58.32.03.45.43.51.91.86-.82,2-1.19,3.06-.71.76.34,1.21,1.14,1.21,1.96l.02,2.74c0,.24-.23.56-.47.65-.21.08-.69-.18-.69-.42l-.04-3.04Z"/>
      <path class="cls-1" d="M54.33,202.69c0-.79-.54-1.27-1.26-1.29-.98-.03-1.84.71-1.85,1.74l-.02,2.2c0,.34-.24.69-.57.68-.32-.02-.6-.33-.6-.67v-4.14c0-.39.15-.71.56-.75.33-.03.55.32.67.82.94-.74,2.07-1.1,3.15-.56.63.32,1.07,1.06,1.07,1.79l.03,2.86c0,.31-.27.64-.54.66-.38.03-.65-.28-.65-.67v-2.65Z"/>
      <path class="cls-1" d="M30.43,201.07l-.04,4.65c0,.18-.65.41-.76.26l-.52-.73c-.88.75-2.16,1.08-3.19.39-.56-.37-.95-1.07-.95-1.74l-.03-2.85c0-.22.33-.58.53-.6.29-.04.67.27.67.59v2.75c0,.36.25.85.57,1.05.52.33,1.17.27,1.69-.01.41-.23.83-.83.84-1.39l.02-2.4c0-.31.29-.59.59-.59.26,0,.59.28.59.62Z"/>
      <path class="cls-1" d="M101.79,201.07l-.04,4.64c0,.2-.64.42-.75.28l-.53-.73c-.89.73-2.16,1.08-3.19.39-.57-.38-.96-1.06-.97-1.75l-.03-2.85c0-.24.32-.58.53-.6.33-.03.67.27.67.6v2.74c0,.28.23.85.45,1,.55.36,1.18.35,1.72.09.48-.23.92-.84.92-1.47l.02-2.37c0-.31.29-.59.59-.59.26,0,.59.29.58.62Z"/>
      <path class="cls-1" d="M116.33,200.91c.09-.27.43-.46.66-.45.2,0,.6.36.53.56l-1.4,3.98c-.23.64-.92,1.01-1.5,1.02-.55,0-1.28-.37-1.5-1l-1.4-3.98c-.07-.2.32-.57.52-.58.25,0,.57.17.67.44l1.33,3.84c.04.12.28.33.38.33.1,0,.34-.21.38-.31l1.32-3.85Z"/>
      <path class="cls-1" d="M107.52,205.26c0,.42-.23.72-.54.76-.26.03-.64-.24-.64-.54v-7.4c0-.2.36-.45.54-.46.21-.02.64.25.64.5v7.15Z"/>
      <path class="cls-1" d="M75.28,205.25c0,.4-.23.74-.51.76-.39.03-.68-.28-.68-.68v-7.25c0-.28.45-.51.68-.47.21.03.5.36.5.62v7.02Z"/>
      <path class="cls-1" d="M134.24,205.26c0,.42-.24.73-.54.75-.37.03-.65-.27-.64-.68v-7.22c0-.19.34-.49.52-.5.21-.02.66.26.66.49v7.16Z"/>
      <path class="cls-1" d="M119.88,203.14l-.03,2.33c0,.23-.38.54-.59.55-.31,0-.59-.33-.58-.7l.03-4.51c0-.21.58-.42.73-.34.18.1.32.34.53.74.62-.44,1.55-.84,2.32-.54.16.06.3.48.2.6s-.42.28-.58.26c-1.03-.11-2.02.46-2.03,1.62Z"/>
      <path class="cls-1" d="M110.42,205.42c0,.34-.35.61-.62.6-.3,0-.55-.33-.55-.69v-4.29c0-.31.29-.6.58-.6.27,0,.59.3.59.6v4.38Z"/>
      <path class="cls-1" d="M78.34,205.76c-.19,1.33-1.8,2-1.65,1.55.23-.69.58-.37.68-1.15l-.56-.35c-.15-.09-.16-.59-.08-.76.16-.35.7-.48,1.02-.38.4.12.66.59.59,1.09Z"/>
      <path class="cls-1" d="M136.09,204.49c.34-.16.81-.02,1,.29s.06.8-.25,1c-.33.21-.85.08-1.02-.17-.26-.38-.15-.91.28-1.11Z"/>
      <path class="cls-1" d="M109.83,199.58c-.47,0-.78-.38-.78-.69,0-.42.37-.74.86-.71.37.03.7.37.69.7,0,.33-.32.69-.78.69Z"/>
      <path class="cls-1" d="M127.02,202.77l-2.86-.03c-.15-.31.09-.78.41-.99.83-.52,2.08-.46,2.76.2.09.09.17.44.16.57s-.33.24-.47.24Z"/>
    </g>
  </g>
</svg>